<svg version="1.1" id="Layer_1" xmlns="http://www.w3.org/2000/svg" xmlns:xlink="http://www.w3.org/1999/xlink" x="0px" y="0px"
	 width="100%" viewBox="0 0 864 880" enable-background="new 0 0 864 880" xml:space="preserve">
<path fill="#000000" opacity="1.000000" stroke="none" 
	d="
M461.809143,140.540314 
	C463.981323,146.174591 463.164520,151.399826 461.804565,156.628021 
	C460.438629,161.879196 455.511719,164.520935 452.560150,168.445557 
	C454.131531,171.127106 456.750763,171.241119 458.649536,172.487534 
	C462.536133,175.038788 466.063751,178.152863 467.026031,182.661987 
	C468.092316,187.658554 471.263519,188.581711 475.296478,188.508774 
	C485.144806,188.330704 494.882935,189.487335 504.645660,190.506317 
	C519.818054,192.089905 534.317810,196.410522 548.800354,200.904007 
	C558.176086,203.813019 567.562927,206.673477 577.546082,206.899277 
	C581.991150,206.999817 583.650146,205.377594 584.091492,200.920898 
	C585.324890,188.466553 597.976929,179.668259 609.572083,182.547379 
	C618.697571,184.813248 623.420227,191.154144 624.983154,199.686462 
	C626.639160,208.727234 621.071899,214.717911 614.413635,219.728851 
	C612.964600,220.819366 611.234375,221.543762 609.611206,222.393875 
	C603.300598,225.699020 603.202148,225.954971 606.168030,232.720886 
	C615.664307,254.384811 625.183533,276.038696 634.664062,297.709473 
	C645.747131,323.043243 656.848755,348.369141 667.801941,373.759033 
	C669.193665,376.984955 670.775146,379.102173 674.581177,379.220947 
	C678.434814,379.341217 679.659973,381.505737 678.833435,385.314941 
	C676.242493,397.254852 670.512268,407.318085 661.542053,415.614716 
	C642.663635,433.075470 620.031433,441.629608 594.690430,441.726990 
	C571.502441,441.816132 549.775330,435.939575 532.177979,419.543213 
	C523.599548,411.550262 517.516235,401.884644 514.557922,390.469147 
	C513.165039,385.094421 514.855774,382.146759 520.125061,380.777496 
	C522.958191,380.041260 523.827271,378.067535 524.475037,375.866974 
	C528.802673,361.164215 534.194885,346.833527 539.391907,332.430054 
	C546.732910,312.084656 554.057861,291.730499 561.068481,271.270081 
	C565.011169,259.763306 569.198853,248.377991 574.114319,237.253357 
	C575.323608,234.516556 575.499817,231.827499 571.580261,231.225647 
	C552.969727,228.367966 534.974304,222.470520 516.294922,220.002213 
	C504.527191,218.447220 492.677002,219.037521 480.855591,219.206177 
	C477.489136,219.254196 475.537659,220.739914 474.926788,224.534531 
	C473.122681,235.741318 465.122040,242.224640 453.654205,241.912216 
	C445.009003,241.676682 436.327789,242.722870 427.717712,241.246765 
	C419.884247,239.903824 414.659454,235.298843 413.736084,227.690292 
	C413.060852,222.126419 410.192413,220.452744 405.177399,220.197281 
	C391.463776,219.498703 377.890625,220.885178 364.322632,222.539459 
	C346.276825,224.739731 328.747253,229.747284 310.778839,232.375122 
	C306.514923,232.998703 306.895630,235.730637 308.222900,238.679871 
	C311.708984,246.425919 315.311340,254.120392 318.731750,261.895081 
	C335.163300,299.244598 351.588867,336.596954 367.890717,374.003143 
	C369.474854,377.638062 371.070740,380.297638 375.595215,380.445160 
	C379.972229,380.587952 380.445801,383.625153 379.544067,387.256073 
	C376.000671,401.524109 368.247009,413.067261 356.926483,422.295410 
	C336.175049,439.211304 312.107147,444.933624 285.861023,443.299774 
	C264.415527,441.964752 245.131973,435.255463 229.231781,420.336487 
	C221.237030,412.835144 216.522171,403.297516 213.523651,392.935791 
	C211.962494,387.541107 214.582016,383.279236 220.009064,382.061188 
	C222.809586,381.432648 223.762909,379.780670 224.547455,377.449127 
	C233.676468,350.319000 243.873550,323.565613 253.274506,296.537689 
	C259.786530,277.815460 267.007172,259.403046 274.327942,241.005753 
	C277.672241,232.601471 276.769165,230.779846 268.433929,227.731171 
	C259.414368,224.432205 253.449219,218.705307 252.346222,208.703232 
	C251.575867,201.717667 257.444214,191.425339 264.500610,187.759903 
	C271.524780,184.111221 280.541626,185.229843 286.406708,190.623642 
	C289.782990,193.728592 291.495819,197.612350 290.773132,202.268463 
	C289.922943,207.746078 290.957062,209.147964 296.634094,209.650040 
	C303.363373,210.245163 309.973083,209.283920 316.393433,207.452423 
	C331.122131,203.250854 345.542633,198.004456 360.424255,194.311752 
	C375.498810,190.571136 390.855713,188.617874 406.329315,187.872650 
	C411.990784,187.599991 416.466370,186.497833 418.777100,180.796738 
	C419.264526,179.594131 420.238861,178.577560 421.043488,177.516678 
	C425.484100,171.661713 425.489929,171.666122 420.667328,166.185532 
	C411.873596,156.192078 412.175262,140.960159 421.339050,132.267273 
	C431.563416,122.568298 446.474884,122.187958 456.108765,131.391663 
	C458.683319,133.851181 460.619537,136.726593 461.809143,140.540314 
M538.484558,373.883057 
	C536.832031,379.637665 536.953979,379.768982 542.847351,380.025879 
	C555.969971,380.597931 569.085632,380.189575 582.206726,379.940643 
	C586.535950,379.858490 588.893616,378.167084 588.839844,373.791626 
	C588.715088,363.636261 588.644104,353.475952 588.252563,343.329132 
	C587.630493,327.203461 586.275330,311.090759 586.157166,294.965759 
	C586.063171,282.144989 585.006165,269.387482 584.784302,256.588593 
	C584.762207,255.315811 584.841675,253.864044 582.162903,252.758698 
	C567.683533,292.938782 553.228394,333.051544 538.484558,373.883057 
M248.412369,348.836060 
	C245.163849,357.928741 241.902374,367.016876 238.671844,376.115936 
	C236.863846,381.208374 237.242798,381.815369 242.871704,381.730469 
	C256.524536,381.524536 270.174622,381.125824 283.827698,380.954132 
	C287.462006,380.908447 289.040405,379.408112 288.855804,375.826874 
	C288.770233,374.167267 288.930145,372.496063 288.874054,370.833649 
	C288.228912,351.702087 287.137482,332.573730 287.023560,313.439423 
	C286.909546,294.281738 284.935913,275.169037 285.862976,255.995392 
	C285.941559,254.370224 286.293213,252.472061 283.969818,250.363144 
	C272.061707,283.367279 260.382263,315.737579 248.412369,348.836060 
M300.289398,282.482178 
	C300.558380,292.294891 300.871887,302.106628 301.087097,311.920532 
	C301.528717,332.058899 301.899719,352.198853 302.358948,372.336823 
	C302.400269,374.149109 302.857849,375.953888 303.147736,377.758026 
	C303.455627,379.674438 304.602600,380.765350 306.539825,380.748322 
	C320.152679,380.628754 333.773346,380.695251 347.373566,380.204437 
	C352.547760,380.017731 353.231659,378.249329 351.123596,373.162231 
	C346.349762,361.642242 341.547089,350.132324 336.580536,338.694550 
	C329.825439,323.137787 322.952667,307.631561 316.041779,292.143219 
	C311.263641,281.434601 306.335876,270.792816 301.474945,260.121155 
	C301.083679,260.188965 300.692413,260.256775 300.301147,260.324585 
	C300.301147,267.379242 300.301147,274.433899 300.289398,282.482178 
M601.460999,329.057190 
	C602.054321,343.170258 602.731689,357.280518 603.208008,371.397522 
	C603.474365,379.289948 603.888428,379.856598 611.931885,379.657074 
	C622.729248,379.389313 633.520752,378.456512 644.326599,379.171814 
	C652.055603,379.683411 653.269409,377.911530 650.143188,370.815063 
	C635.264771,337.041809 620.436707,303.246338 605.629578,269.441772 
	C604.007568,265.738892 602.897522,261.797211 599.350647,258.619659 
	C600.029602,281.786469 600.708557,304.953278 601.460999,329.057190 
z"/>
<path fill="#000000" opacity="1.000000" stroke="none" 
	d="
M398.659546,508.893372 
	C390.215942,509.408081 382.229645,509.167358 374.244049,509.816132 
	C365.094971,510.559479 362.837616,507.570435 364.677124,498.587189 
	C368.087006,481.935516 381.548645,470.742249 398.250244,469.547668 
	C412.736938,468.511475 427.212036,469.158905 441.683655,468.688660 
	C443.461060,468.630920 445.327728,469.072357 447.031433,467.004456 
	C443.039368,467.004456 439.046967,466.971130 435.055298,467.011658 
	C427.560760,467.087677 420.066864,467.259644 412.572296,467.288971 
	C407.450439,467.308990 405.743622,465.174774 407.485718,460.396057 
	C410.828278,451.227051 417.291351,445.012756 427.099884,444.025330 
	C443.495056,442.374786 460.006866,442.517212 476.457581,443.156281 
	C485.532227,443.508820 490.731476,449.305695 492.402557,458.283081 
	C493.184784,462.485321 491.544556,464.512573 487.926270,465.833771 
	C483.799225,467.340790 479.424286,466.800659 475.212677,467.816956 
	C484.679199,467.816956 494.145752,467.803864 503.612244,467.819794 
	C521.067749,467.849152 533.775757,483.998749 534.847473,500.275970 
	C535.025330,502.977875 533.028381,503.904266 531.098328,504.992706 
	C525.815552,507.971924 519.966736,506.752472 514.451599,506.896423 
	C494.648895,507.413147 474.828094,507.180573 455.018097,507.487152 
	C436.386353,507.775543 417.759613,508.387451 398.659546,508.893372 
z"/>
<path fill="#000000" opacity="1.000000" stroke="none" 
	d="
M467.020721,307.061859 
	C467.505310,327.856354 467.388855,348.195801 468.623749,368.452881 
	C469.890686,389.236084 469.485931,410.065430 471.099579,430.816772 
	C471.453033,435.362183 469.723999,438.028076 465.376770,439.412415 
	C458.369385,441.643860 451.166962,440.806885 444.042542,441.059875 
	C429.689972,441.569550 430.454071,441.471466 430.199463,427.284027 
	C429.841125,407.314362 429.202026,387.352417 428.726044,367.388123 
	C427.872772,331.596954 426.658539,295.814392 425.608765,260.027832 
	C425.564972,258.535339 425.520996,257.020813 425.712616,255.547165 
	C426.675781,248.140823 429.899292,244.935150 437.287231,244.619003 
	C444.578125,244.307037 451.886566,244.343842 459.187286,244.345520 
	C463.272949,244.346451 465.112457,246.551682 465.200073,250.649673 
	C465.442200,261.972626 465.818512,273.292938 466.184784,284.612915 
	C466.421692,291.933411 466.734314,299.251495 467.020721,307.061859 
z"/>
<path fill="#000000" opacity="1.000000" stroke="none" 
	d="
M220.989990,663.136353 
	C214.333572,663.197449 208.174591,663.297913 202.016037,663.275574 
	C199.991211,663.268250 197.280716,664.248169 196.553131,661.267273 
	C195.932281,658.723755 196.510513,655.590454 198.939484,654.705139 
	C206.184799,652.064148 205.061737,646.329041 204.936630,640.761108 
	C204.507004,621.639526 204.132446,602.516663 203.712006,583.394897 
	C203.617142,579.080505 203.198318,574.965820 197.827332,573.773132 
	C196.270813,573.427551 195.127548,572.216003 195.419846,570.457092 
	C195.802261,568.155884 196.339401,565.824158 198.635223,564.542786 
	C199.201462,564.226746 199.896988,563.928528 200.518311,563.955933 
	C218.596237,564.755066 236.760513,560.752930 254.768799,564.756042 
	C271.569153,568.490723 280.334656,585.103027 273.668976,600.481079 
	C271.397522,605.721375 267.137360,609.202759 262.370880,612.090942 
	C256.296173,615.771790 256.319855,615.798767 260.778107,621.009827 
	C265.920410,627.020569 269.128326,634.210571 272.694031,641.160095 
	C275.471344,646.573059 278.357849,651.540649 284.686981,653.778931 
	C288.587311,655.158325 288.479431,657.958008 284.974457,660.294983 
	C276.767975,665.766785 261.845398,662.898682 253.585770,654.176208 
	C250.126022,650.522644 247.389450,646.342346 245.426544,641.698242 
	C242.961594,635.866394 240.103180,630.250610 236.693558,624.908936 
	C235.846512,623.581909 235.045425,622.258301 233.266586,622.574036 
	C231.389099,622.907288 231.098816,624.571045 231.109573,626.065918 
	C231.159775,633.055237 231.244431,640.046387 231.477905,647.031433 
	C231.591064,650.416992 233.898422,651.831909 236.973785,652.498962 
	C239.224594,652.987244 241.951859,653.459778 242.016891,656.428589 
	C242.075012,659.080688 239.711670,660.367371 237.683838,661.469604 
	C232.547638,664.261475 226.883163,662.496277 220.989990,663.136353 
M237.386108,575.821045 
	C230.720032,574.464600 229.986328,574.977661 230.161331,581.559204 
	C230.364273,589.191345 230.731949,596.819336 231.057297,604.447876 
	C231.111877,605.727539 230.797455,607.176270 232.227524,608.018616 
	C235.208176,609.774292 245.614777,606.840027 247.211166,603.797974 
	C252.328552,594.046326 248.038727,581.004700 237.386108,575.821045 
z"/>
<path fill="#000000" opacity="1.000000" stroke="none" 
	d="
M646.194702,637.973328 
	C648.501404,649.069031 642.955383,654.457031 633.761902,657.848328 
	C616.274963,664.298828 598.505737,665.527954 580.964050,659.234192 
	C565.064209,653.529419 555.774841,641.472839 552.306824,624.847717 
	C547.734863,602.931030 555.553223,575.951721 579.197083,564.889099 
	C592.274170,558.770508 606.110535,557.860840 620.230652,559.273560 
	C626.720947,559.922913 633.001770,561.473083 639.063354,563.923096 
	C641.817261,565.036133 643.295349,566.768799 643.332397,569.925598 
	C643.389160,574.743896 643.539978,579.589661 644.126587,584.365356 
	C644.740845,589.365662 643.217041,593.049683 638.404175,594.569458 
	C633.594910,596.088013 632.090637,591.923035 630.364502,588.817200 
	C624.133545,577.605774 614.531372,572.553833 601.917786,573.252502 
	C591.946655,573.804871 584.776123,578.545837 582.066833,588.508606 
	C577.751892,604.375732 577.864685,619.914795 585.113831,635.205200 
	C590.697754,646.983032 607.774048,650.802246 616.910767,648.729370 
	C620.105713,648.004517 620.687988,645.515259 620.586914,643.011292 
	C620.365845,637.533630 619.847473,632.062866 619.286316,626.606079 
	C618.992737,623.751709 617.555359,621.510315 614.562134,620.826477 
	C611.594849,620.148560 610.340942,618.458618 610.788330,615.448669 
	C611.268311,612.219116 613.111389,610.228699 616.333923,610.010376 
	C619.982117,609.763245 623.656128,609.879700 627.319031,609.873230 
	C634.479675,609.860596 641.640503,609.837830 648.800781,609.892395 
	C651.362549,609.911926 654.095642,610.220093 654.881470,613.170532 
	C655.661499,616.098938 653.124756,617.376343 651.089111,618.300171 
	C646.970276,620.169312 645.635437,623.131897 646.094482,627.495300 
	C646.441101,630.790588 646.183289,634.149414 646.194702,637.973328 
z"/>
<path fill="#000000" opacity="1.000000" stroke="none" 
	d="
M536.236877,617.886108 
	C536.261292,619.533142 536.154236,620.715332 536.310303,621.861755 
	C536.859558,625.897156 534.193665,627.676086 531.134399,628.774719 
	C528.110901,629.860291 525.981140,628.096558 524.691895,625.468811 
	C521.792969,619.560364 516.755249,618.493530 510.847778,618.945862 
	C507.880859,619.173096 506.075592,620.314819 506.106689,623.462463 
	C506.177429,630.622620 506.233521,637.783997 506.428833,644.941284 
	C506.515076,648.102295 508.224243,649.693176 511.543579,649.746216 
	C517.061707,649.834351 522.531677,649.297058 527.956238,648.499695 
	C532.240417,647.869995 535.617981,645.548706 538.034119,641.792725 
	C540.283264,638.296265 542.754333,634.938049 545.224365,631.590271 
	C546.220337,630.240356 547.525085,628.871643 549.411255,629.808289 
	C551.002502,630.598511 550.841248,632.260742 550.658264,633.789612 
	C549.827454,640.729919 549.059265,647.678345 548.161621,654.609985 
	C547.598694,658.957092 543.372803,662.164856 537.888184,662.184021 
	C517.928406,662.253906 497.968170,662.215393 478.008118,662.191589 
	C475.691956,662.188782 472.909454,662.467224 472.228729,659.526184 
	C471.622040,656.905090 472.909515,653.940735 475.170654,653.151123 
	C481.619873,650.899048 480.952454,646.028931 480.743256,640.954834 
	C480.016724,623.332825 479.376892,605.706970 478.792480,588.079651 
	C478.686890,584.895325 478.422607,581.765442 477.570892,578.701416 
	C476.857880,576.136475 475.317230,574.181702 472.739441,573.392456 
	C469.987000,572.549805 467.662018,571.686035 468.416382,567.992249 
	C469.142303,564.437805 471.063599,562.258484 474.713013,561.978943 
	C477.363251,561.775940 480.037018,561.854065 482.700348,561.851990 
	C500.853912,561.837952 519.007629,561.797668 537.161011,561.849060 
	C544.187744,561.868958 544.835632,562.601685 544.968994,569.592834 
	C545.042053,573.422363 544.944336,577.260071 545.159119,581.080811 
	C545.417908,585.683228 542.504761,587.796997 538.858826,588.907654 
	C534.932495,590.103699 533.833618,586.796753 532.496338,584.076050 
	C528.342957,575.625977 515.721741,570.906128 507.254242,574.589355 
	C505.153687,575.503113 504.264465,577.209229 504.346008,579.382202 
	C504.626831,586.863220 504.950165,594.343018 505.320160,601.820129 
	C505.405640,603.547668 505.985687,605.008667 507.913330,605.660095 
	C514.080688,607.744324 522.914124,605.027954 527.266113,599.755920 
	C529.080322,597.558044 530.348633,593.679688 533.995056,594.959595 
	C537.672302,596.250366 536.041016,600.127441 536.165405,602.917358 
	C536.380432,607.737915 536.225647,612.574890 536.236877,617.886108 
z"/>
<path fill="#000000" opacity="1.000000" stroke="none" 
	d="
M61.123974,646.586304 
	C60.966961,650.910095 62.944263,652.716370 66.676109,653.325928 
	C69.202675,653.738586 72.534348,653.951111 72.633781,657.470398 
	C72.723106,660.631714 69.707542,661.617310 67.359703,662.818726 
	C64.565918,664.248230 61.530674,664.103638 58.545200,663.843018 
	C49.740433,663.074158 40.958336,662.927795 32.148331,663.916870 
	C29.585819,664.204529 26.233053,664.361633 25.639290,660.933044 
	C25.058401,657.578735 27.368958,654.890015 30.429293,654.235291 
	C34.630535,653.336426 35.098015,650.882812 35.030128,647.369690 
	C34.625446,626.426086 34.305752,605.480591 34.016617,584.535034 
	C33.953468,579.960571 33.579624,575.834473 27.925600,574.626404 
	C25.844658,574.181702 25.165794,572.201355 25.627642,570.226929 
	C26.333746,567.208374 27.596592,564.338135 31.155664,563.956238 
	C33.952629,563.656189 36.814697,563.763489 39.635410,563.917480 
	C54.214550,564.713501 68.990273,562.372742 83.369896,565.767761 
	C94.807259,568.468140 104.595200,573.832703 107.770233,586.581726 
	C110.522308,597.632385 106.137787,608.727966 95.815422,616.177429 
	C87.575958,622.123657 78.651665,626.178345 68.172012,626.376404 
	C61.372219,626.504883 60.953415,627.304382 61.005470,634.154480 
	C61.035828,638.148804 61.077785,642.143066 61.123974,646.586304 
M60.226604,584.706909 
	C60.270313,592.842102 60.303288,600.977417 60.365417,609.112488 
	C60.380608,611.101196 60.215729,613.112488 62.943615,613.765442 
	C69.783035,615.402527 79.009750,610.563477 80.248146,603.812378 
	C82.542679,591.303894 80.455101,584.695374 70.035561,578.284912 
	C63.514847,574.273193 60.332718,576.118774 60.226604,584.706909 
z"/>
<path fill="#000000" opacity="1.000000" stroke="none" 
	d="
M721.561707,576.532715 
	C730.634644,598.412109 739.569580,619.934021 748.451599,641.477722 
	C750.211182,645.745544 752.922058,648.765869 757.585815,649.910095 
	C759.489746,650.377258 761.661377,651.134460 761.950256,653.487061 
	C762.274658,656.129395 759.994873,657.134094 758.182007,658.246704 
	C755.684937,659.779236 752.874268,660.129883 749.999817,660.030273 
	C739.536560,659.668030 729.074158,658.978821 718.611023,660.047729 
	C717.003296,660.212036 715.416199,659.934753 715.065857,658.111877 
	C714.604614,655.711548 714.929749,652.847107 717.109802,651.835449 
	C722.497375,649.335510 720.758545,645.727112 719.345093,641.967468 
	C714.563904,629.249939 713.749756,628.708862 700.097412,629.176514 
	C699.598022,629.193604 699.097900,629.211731 698.600342,629.255066 
	C684.788879,630.456970 686.543274,627.807373 682.797424,643.134094 
	C681.878357,646.894836 682.824524,649.270386 686.894714,650.099487 
	C688.796143,650.486755 691.006226,650.887390 691.195923,653.519104 
	C691.374207,655.993591 689.415527,656.805420 687.729248,657.910583 
	C681.518799,661.980774 674.329224,659.394470 667.741333,660.916138 
	C665.991638,661.320312 664.089966,661.122192 662.258972,661.104675 
	C659.923950,661.082275 657.279846,661.246582 656.176575,658.677124 
	C655.029297,656.005371 656.487854,652.969299 658.470764,652.119324 
	C666.672668,648.603516 667.309753,640.733337 669.828613,633.928345 
	C676.409546,616.148865 682.971924,598.362061 689.427673,580.536865 
	C691.458679,574.929016 692.164368,568.928467 694.962952,563.497070 
	C698.220398,557.175049 703.926514,558.232483 709.288391,557.935730 
	C714.019226,557.673828 715.332214,560.990173 716.615356,564.653931 
	C717.988647,568.575073 719.790405,572.346252 721.561707,576.532715 
M701.677368,617.973572 
	C709.007812,617.729797 709.231873,617.397827 706.774841,610.586182 
	C706.381592,609.496033 706.193726,608.318726 705.705017,607.278442 
	C703.731018,603.076233 702.666687,598.417969 699.442200,593.464050 
	C696.092224,600.308472 694.630554,606.561584 692.648926,612.619995 
	C691.344971,616.606750 693.127991,618.240417 696.889954,618.361755 
	C698.203674,618.404175 699.527405,618.135986 701.677368,617.973572 
z"/>
<path fill="#000000" opacity="1.000000" stroke="none" 
	d="
M314.348877,649.483948 
	C314.978302,651.750793 316.605865,652.213501 318.217194,652.700867 
	C319.949066,653.224548 321.145447,654.234863 321.374390,656.145447 
	C321.635681,658.326050 320.297028,659.492004 318.680481,660.528137 
	C316.666748,661.818909 314.433411,662.607178 312.100769,662.705322 
	C306.279633,662.950195 300.449127,663.070801 294.623047,663.050171 
	C292.310211,663.041992 289.765228,662.828247 288.967560,659.958374 
	C288.179810,657.124146 289.538696,654.574524 291.805054,653.597290 
	C297.716095,651.048401 298.773956,645.734924 300.575989,640.545776 
	C307.563995,620.422791 314.726868,600.360352 321.890259,580.298767 
	C323.395935,576.082031 323.711273,571.512939 326.106628,567.541931 
	C328.104492,564.229919 330.527802,562.262146 334.592255,562.729065 
	C336.402679,562.937012 338.271393,562.945984 340.084259,562.759521 
	C343.625458,562.395264 345.547028,563.916870 346.877136,567.194275 
	C356.583710,591.111633 366.419586,614.976562 376.235382,638.849487 
	C377.375122,641.621399 378.687256,644.322205 379.836945,647.090210 
	C381.007538,649.908508 382.917114,651.817993 385.979645,652.380615 
	C388.419037,652.828796 390.760223,653.658386 390.892212,656.480469 
	C391.010193,659.003357 388.708771,660.044678 386.818054,661.074463 
	C380.547638,664.489563 373.753723,662.971680 367.181213,662.811157 
	C362.197540,662.689514 357.234192,662.234131 352.244537,662.734253 
	C349.901184,662.969177 347.289429,663.187500 346.144287,660.570129 
	C344.995514,657.944458 346.184967,655.355347 348.290466,653.932556 
	C351.816193,651.550232 351.103088,648.902161 349.959839,645.688049 
	C344.969421,631.658142 345.019897,631.640320 330.219757,632.066467 
	C317.726440,632.426147 317.714569,632.423401 314.941498,644.678528 
	C314.613556,646.127747 314.502258,647.625977 314.348877,649.483948 
M327.964752,601.562500 
	C326.319031,607.691528 323.492615,613.531616 322.945831,620.169922 
	C327.860870,621.365234 332.242126,620.309326 336.620331,619.777405 
	C338.212616,619.583923 338.950562,618.322449 338.632660,616.879761 
	C337.079041,609.828796 334.208832,603.274780 331.409149,596.656067 
	C328.946198,597.581970 328.973389,599.477661 327.964752,601.562500 
z"/>
<path fill="#000000" opacity="1.000000" stroke="none" 
	d="
M132.276825,570.387817 
	C136.452728,564.262939 141.414093,562.481934 148.284195,564.177795 
	C151.501617,564.972107 152.744919,567.366516 153.817520,570.065186 
	C162.363739,591.567688 170.915115,613.068054 179.477310,634.564148 
	C180.955109,638.274292 182.551208,641.938110 183.983856,645.665161 
	C185.354767,649.231628 187.073807,652.221680 191.382889,652.885925 
	C193.183090,653.163391 194.825150,654.297913 195.087616,656.454163 
	C195.358551,658.679932 193.562347,659.541992 192.219162,660.767456 
	C188.811676,663.876221 184.531647,662.853455 180.744232,662.800110 
	C172.605148,662.685486 164.472382,662.341309 156.322418,662.514160 
	C154.501907,662.552795 151.906036,662.890564 151.233093,660.359314 
	C150.517349,657.667053 151.732971,655.116028 154.088562,653.992615 
	C157.902115,652.173950 157.363434,649.933044 156.062408,646.752075 
	C150.349274,632.783752 150.425537,632.752625 135.465973,632.956604 
	C123.422150,633.120911 123.281609,633.303833 120.673332,645.393738 
	C119.754295,649.653503 119.692688,653.125977 125.241653,653.764526 
	C126.836227,653.948059 128.065567,654.852173 128.452438,656.499329 
	C128.901733,658.412415 127.816933,659.725037 126.378090,660.681396 
	C123.843430,662.366150 121.109047,663.345215 117.951668,663.331238 
	C111.794640,663.303955 105.635353,663.485535 99.479523,663.666504 
	C97.618484,663.721252 95.689964,664.055237 94.597107,662.111572 
	C93.547005,660.243835 94.561958,658.563049 95.500671,656.978821 
	C95.919312,656.272278 96.394547,655.335754 97.063812,655.081299 
	C105.287468,651.953247 105.911713,644.001221 108.099777,637.291260 
	C114.595070,617.372742 122.867065,598.077881 128.761047,577.950867 
	C129.500351,575.426331 130.948471,573.109314 132.276825,570.387817 
M130.400558,613.794189 
	C129.900040,616.174927 128.478912,618.399353 129.187210,621.382996 
	C134.226959,621.859253 139.188034,621.693054 144.355057,620.001282 
	C141.969666,612.400452 139.686264,605.124573 137.052979,596.733826 
	C133.468628,602.559082 132.625931,608.034668 130.400558,613.794189 
z"/>
<path fill="#000000" opacity="1.000000" stroke="none" 
	d="
M808.758179,567.877075 
	C806.634338,569.884399 806.259216,572.124207 806.252808,574.532654 
	C806.191650,597.342834 807.495972,620.114807 808.120422,642.905762 
	C808.193604,645.573792 809.245300,646.950928 812.005859,646.870483 
	C815.833801,646.758850 819.686584,646.935181 823.486816,646.561829 
	C830.553833,645.867554 836.033813,642.651489 839.420227,636.086914 
	C841.090576,632.848877 843.250244,629.846313 845.359314,626.857788 
	C846.605286,625.092224 848.522156,624.314270 850.653076,625.060242 
	C853.055176,625.901184 853.002441,627.922729 852.768555,630.039551 
	C852.202271,635.166138 851.578491,640.293762 851.259277,645.438477 
	C850.637390,655.461365 846.072144,660.036316 835.802368,660.080322 
	C817.650635,660.158081 799.498047,660.033508 781.345825,659.995911 
	C779.847412,659.992798 778.332825,660.148987 776.854431,659.979919 
	C774.618164,659.723999 771.796997,660.033142 771.200134,657.027954 
	C770.671509,654.366089 771.788879,651.427673 774.198425,650.711304 
	C781.044006,648.676086 780.571899,643.180969 780.415833,638.223511 
	C779.793152,618.442139 778.793335,598.672852 778.010132,578.896118 
	C777.823669,574.187439 776.620483,570.445007 771.461975,568.983398 
	C769.175354,568.335571 768.616150,566.206238 769.168640,564.076965 
	C769.988342,560.917786 771.836060,558.781128 775.434387,558.692627 
	C784.747803,558.463623 794.059387,558.154236 803.373169,557.943909 
	C806.365967,557.876282 809.372131,557.895874 812.355530,558.109558 
	C814.175537,558.239929 816.200439,558.676758 816.628906,560.880066 
	C817.096375,563.283569 815.345215,564.464111 813.498169,565.416565 
	C812.025146,566.176025 810.527893,566.888428 808.758179,567.877075 
z"/>
<path fill="#000000" opacity="1.000000" stroke="none" 
	d="
M440.567841,740.516357 
	C444.471252,750.130981 448.277039,759.370972 451.970734,768.655518 
	C453.478394,772.445190 455.550415,775.343506 459.996002,775.913208 
	C461.822113,776.147278 463.626709,776.992676 463.959625,779.163757 
	C464.263336,781.144104 462.674835,782.110168 461.382172,783.119934 
	C458.936584,785.030396 456.171326,786.111938 453.019257,785.782532 
	C444.047424,784.844788 435.046661,785.117981 426.052826,785.046570 
	C423.972351,785.030090 421.354706,785.733826 420.561768,782.909241 
	C419.837097,780.328064 421.383118,777.938904 423.428741,777.055054 
	C428.000153,775.079834 427.477539,771.953003 426.043579,768.526733 
	C424.258423,764.261353 423.802887,758.689209 416.994263,759.020142 
	C412.005859,759.262573 406.992615,759.386597 402.007172,759.172791 
	C398.143951,759.007080 396.103821,760.768127 395.058380,764.190735 
	C394.475128,766.100220 393.852783,768.001587 393.370331,769.937134 
	C392.558777,773.192871 393.290588,775.505127 397.109711,776.056274 
	C399.079071,776.340454 401.386566,776.754089 401.580444,779.266846 
	C401.776520,781.807739 399.733917,783.046631 397.717804,783.945374 
	C389.585297,787.570190 380.981598,786.065857 372.572662,785.829285 
	C369.377594,785.739441 368.425049,780.686768 372.029205,778.406799 
	C382.996246,771.469421 382.967377,759.285645 386.917816,749.174988 
	C392.722748,734.318115 398.340424,719.358337 403.206696,704.133240 
	C405.539093,696.835876 412.993530,693.402222 420.393799,695.179871 
	C422.923615,695.787476 423.780975,697.658936 424.579529,699.694397 
	C429.869934,713.179443 435.145050,726.670532 440.567841,740.516357 
M411.017975,727.826355 
	C410.202484,726.093140 408.893738,724.401367 407.744598,727.180664 
	C405.101166,733.573792 402.915497,740.158875 401.466034,746.844421 
	C404.244720,748.592224 406.791504,747.881775 409.222656,747.818481 
	C417.507782,747.603088 417.534698,747.547241 415.100494,739.844727 
	C413.896881,736.036194 412.567596,732.267273 411.017975,727.826355 
z"/>
<path fill="#000000" opacity="1.000000" stroke="none" 
	d="
M423.309021,582.012817 
	C424.290924,603.257446 426.372498,623.975220 426.389160,644.797302 
	C426.392059,648.433350 428.108337,650.350281 432.025848,649.923096 
	C435.652618,649.527527 439.297516,649.776611 442.959473,649.188538 
	C449.149628,648.194458 453.130554,645.028381 455.726562,639.349915 
	C457.296295,635.916443 459.720001,632.844666 461.966553,629.760864 
	C463.174377,628.102905 464.962372,626.879395 467.168854,627.872498 
	C469.160919,628.769104 469.302795,630.723816 469.126404,632.604797 
	C468.474091,639.562073 467.876617,646.527588 467.035767,653.463013 
	C466.411285,658.613770 461.514923,662.767151 455.160187,662.856995 
	C435.712372,663.131897 416.259674,663.140930 396.809296,663.088074 
	C392.385040,663.076050 391.508148,661.375122 393.209198,657.311462 
	C393.591370,656.398560 393.935852,655.155334 394.673096,654.754456 
	C401.594910,650.990295 400.065125,644.735596 400.025848,638.577026 
	C399.907959,620.094299 398.976593,601.653503 397.984375,583.208313 
	C397.747833,578.811035 397.349518,574.834717 391.776031,573.985352 
	C389.864441,573.694031 389.185455,571.897705 389.598053,570.070679 
	C390.403564,566.503540 391.816559,563.251099 396.076843,562.869385 
	C400.547028,562.468933 405.038727,562.224243 409.525940,562.118103 
	C415.667114,561.972900 421.813538,561.960449 427.956390,562.022766 
	C430.135071,562.044800 432.507660,562.336487 433.082245,565.020203 
	C433.591156,567.397400 431.965515,568.986328 430.032562,569.590271 
	C423.909912,571.502930 422.301422,575.731995 423.309021,582.012817 
z"/>
<path fill="#000000" opacity="1.000000" stroke="none" 
	d="
M504.146973,748.121582 
	C504.200256,755.266785 504.263977,761.929688 504.303619,768.592651 
	C504.325409,772.258423 505.672302,774.663391 509.751953,774.877625 
	C512.037048,774.997559 514.125610,775.777100 514.471069,778.451843 
	C514.806580,781.049988 512.472412,781.626892 510.875519,782.691162 
	C507.862549,784.699402 504.520142,785.406860 500.910858,785.364868 
	C493.417603,785.277649 485.922333,785.374207 478.428528,785.315063 
	C476.193604,785.297424 473.222687,786.004639 472.592346,782.933105 
	C471.966187,779.881836 473.587463,776.887939 476.478119,776.158142 
	C481.101410,774.990906 481.177612,772.201599 481.095490,768.365601 
	C480.778381,753.552368 480.826080,738.731689 480.614655,723.915527 
	C480.555420,719.765747 480.062958,715.622742 479.789734,711.475220 
	C479.591766,708.469238 478.035370,706.715149 475.209076,705.618408 
	C472.711334,704.649231 470.150604,703.232605 471.130035,699.760681 
	C472.022949,696.595337 473.886719,694.652161 477.556671,694.646790 
	C487.697449,694.631897 497.837708,694.372131 507.978668,694.329712 
	C510.303467,694.320007 512.999084,694.533386 513.506226,697.484070 
	C513.950012,700.066223 511.872009,701.676147 509.815247,702.168030 
	C503.646362,703.643250 503.118713,707.952026 503.149658,713.213867 
	C503.217255,724.700562 503.486389,736.173523 504.146973,748.121582 
z"/>
</svg>